<svg width="43" height="43" viewBox="0 0 43 43" fill="none" xmlns="http://www.w3.org/2000/svg">
<path d="M1.5 21.5C1.5 32.5457 10.4543 41.5 21.5 41.5C32.5457 41.5 41.5 32.5457 41.5 21.5C41.5 10.4543 32.5457 1.5 21.5 1.5C10.4543 1.5 1.5 10.4543 1.5 21.5Z" stroke="#0E1B2C" stroke-width="2"/>
<path d="M10.0714 21.5C10.0714 27.8118 15.1882 32.9286 21.5 32.9286C27.8118 32.9286 32.9286 27.8118 32.9286 21.5C32.9286 15.1882 27.8118 10.0714 21.5 10.0714C15.1882 10.0714 10.0714 15.1882 10.0714 21.5Z" stroke="#0E1B2C" stroke-width="2"/>
<path d="M18.6429 21.5C18.6429 23.078 19.922 24.3571 21.5 24.3571C23.078 24.3571 24.3571 23.078 24.3571 21.5C24.3571 19.922 23.078 18.6429 21.5 18.6429C19.922 18.6429 18.6429 19.922 18.6429 21.5Z" stroke="#0E1B2C" stroke-width="2"/>
</svg>
